<svg xmlns="http://www.w3.org/2000/svg" viewBox="0 0 64 64" width="64" height="64" role="img" aria-label="75 Challenge">
  <defs>
    <linearGradient id="fire" x1="0" y1="0" x2="1" y2="1">
      <stop offset="0%" stop-color="#ff5a1f"/>
      <stop offset="100%" stop-color="#ff1744"/>
    </linearGradient>
  </defs>
  <rect width="64" height="64" rx="14" fill="#0a0c10"/>
  <rect x="2" y="2" width="60" height="60" rx="12" fill="url(#fire)"/>
  <g transform="translate(12 12) scale(1.667)" fill="none" stroke="#fff" stroke-width="2.1" stroke-linecap="round" stroke-linejoin="round">
    <path d="M8.5 14.5A2.5 2.5 0 0 0 11 12c0-1.38-.5-2-1-3-1.072-2.143-.224-4.054 2-6 .5 2.5 2 4.9 4 6.5 2 1.6 3 3.5 3 5.5a7 7 0 1 1-14 0c0-1.153.433-2.294 1-3a2.5 2.5 0 0 0 2.5 2.5z"/>
  </g>
</svg>
